PathFileType  4	(X/Y/Z) C:\Users\antoi\Documents\MyRepositories\mobilecap\ResultsAnalysis
DataRate	CameraRate	NumFrames	NumMarkers	Units	OrigDataRate	OrigDataStartFrame	OrigNumFrames
100.0	100.0	5	51	mm	100.0	1156	1321
Frame#	Time	r_knee			r_shank_antsup			r_ankle			r_calc			r_5meta			r_toe			L_knee			L_shank_antsup			L_ankle			L_calc			L_5meta			L_toe			r_sh2			r_sh3			r_sh4			L_sh2			L_sh3			r_thigh1			r_thigh2			r_thigh3			r_thigh4			r_thigh5			L_thigh1			L_thigh2			L_thigh3			L_thigh4			r.ASIS			r.PSIS			L.ASIS			L.PSIS			C7			R_Shoulder			L_Shoulder			R_Sternum			L_Sternum			R_humerus			R_elbow_med			R_elbow_lat			R_forearm			R_wrist_radius			R_wrist_ulna			L_humerus			L_elbow_med			L_elbow_lat			L_forearm			L_wrist_radius			L_wrist_ulna			R_HJC			L_HJC			R_HJC_reg			L_HJC_reg			
		X1	Y1	Z1	X2	Y2	Z2	X3	Y3	Z3	X4	Y4	Z4	X5	Y5	Z5	X6	Y6	Z6	X7	Y7	Z7	X8	Y8	Z8	X9	Y9	Z9	X10	Y10	Z10	X11	Y11	Z11	X12	Y12	Z12	X13	Y13	Z13	X14	Y14	Z14	X15	Y15	Z15	X16	Y16	Z16	X17	Y17	Z17	X18	Y18	Z18	X19	Y19	Z19	X20	Y20	Z20	X21	Y21	Z21	X22	Y22	Z22	X23	Y23	Z23	X24	Y24	Z24	X25	Y25	Z25	X26	Y26	Z26	X27	Y27	Z27	X28	Y28	Z28	X29	Y29	Z29	X30	Y30	Z30	X31	Y31	Z31	X32	Y32	Z32	X33	Y33	Z33	X34	Y34	Z34	X35	Y35	Z35	X36	Y36	Z36	X37	Y37	Z37	X38	Y38	Z38	X39	Y39	Z39	X40	Y40	Z40	X41	Y41	Z41	X42	Y42	Z42	X43	Y43	Z43	X44	Y44	Z44	X45	Y45	Z45	X46	Y46	Z46	X47	Y47	Z47	X48	Y48	Z48	X49	Y49	Z49	X50	Y50	Z50	X51	Y51	Z51	

1156	11.55000000	-116.98652	424.56497	-367.19806	-78.59802	354.45888	-364.80200	-275.98419	86.69330	-382.61733	-332.42979	57.01338	-430.15671	-175.69895	41.23588	-348.51647	-133.90183	58.52254	-399.24760	-111.18678	425.84334	-789.08377	-84.57455	328.99074	-784.19770	-273.62670	94.81426	-785.82648	-335.04453	55.31254	-739.34137	-183.44724	43.80688	-828.25737	-128.86733	57.73000	-778.79836	-138.88783	258.41937	-360.21804	-139.51037	393.56015	-339.69929	-206.46015	298.83720	-336.71068	-150.33666	379.46932	-818.01668	-209.71716	273.69637	-829.25309	-282.27064	612.74246	-351.63295	-190.06085	548.03606	-351.04165	-251.94479	457.99328	-380.35035	-349.16475	524.30994	-371.85182	-211.89228	481.51549	-350.69318	-297.49914	636.92438	-780.74893	-187.30277	553.85499	-784.61007	-370.59904	550.42722	-776.79838	-258.83837	466.32938	-767.74030	-282.17185	689.97429	-463.29006	-447.97442	811.03694	-530.79485	-286.23388	687.43820	-677.27869	-448.60667	807.17512	-611.71243	-101.02845	1090.40176	-568.41563	-44.50145	1041.82922	-441.41683	-50.25096	1046.00348	-697.94315	-15.86252	981.85404	-553.45109	-20.00466	980.92771	-582.61344	6.36154	975.08470	-373.08123	56.00494	771.60743	-308.92760	80.57307	820.34234	-265.08502	165.31994	854.46484	-290.27326	294.60955	861.05249	-343.32784	305.23199	833.81304	-318.29758	-10.63393	980.72653	-773.69757	73.22719	775.24603	-806.96026	87.56069	823.91147	-850.93647	189.27323	849.48220	-827.24476	302.88792	861.07831	-773.83000	313.84652	830.96175	-798.11209	-392.76674	650.09763	-462.71991	-395.89483	649.21588	-670.20159	-375.66993	667.69524	-490.54168	-376.77347	660.96226	-631.64483	
1157	11.56000000	-115.79596	423.64069	-366.30433	-77.29321	353.26694	-364.26596	-275.72323	86.97347	-382.45429	-332.34735	57.09329	-430.20800	-175.69453	41.20109	-348.48274	-133.80564	58.46003	-399.20257	-109.72744	424.65567	-789.94597	-83.00298	327.66818	-784.74234	-273.42196	94.82376	-785.77900	-334.99282	55.40677	-739.22810	-183.42845	43.78352	-828.22238	-128.93294	57.52504	-779.00197	-137.88945	257.51733	-359.85392	-138.35140	392.27155	-339.47273	-205.37351	298.29875	-336.38775	-148.66468	378.37092	-818.75351	-208.54957	272.47299	-829.33108	-284.41265	608.78536	-351.90856	-191.37717	545.78161	-350.87640	-251.33159	454.55659	-379.45180	-349.79104	518.99720	-371.68245	-211.69974	478.74034	-350.36768	-299.34679	632.70373	-780.96889	-187.97727	551.57564	-785.26183	-371.13296	545.19624	-777.98022	-258.09100	462.84381	-768.89840	-283.36838	682.59698	-463.63426	-448.48897	804.24576	-531.34076	-287.36642	680.00902	-677.58041	-449.12147	800.47917	-612.09762	-98.44364	1079.40105	-568.74756	-42.37445	1030.52282	-442.11766	-47.60807	1034.78348	-697.98604	-15.10639	969.01324	-552.57724	-18.15272	969.25615	-582.73482	8.70699	964.66025	-373.74960	59.79878	762.03007	-309.09347	83.93438	810.82442	-265.24061	168.43076	845.44013	-290.79295	297.71506	852.88576	-343.80456	308.46627	825.75892	-318.70529	-7.80885	970.02305	-773.90887	77.08436	765.00999	-806.85064	91.31988	813.79716	-850.93163	192.82034	839.85395	-826.76407	306.21504	852.20984	-773.19890	317.40213	822.04480	-797.45889	-394.10557	643.17533	-463.09918	-397.13317	642.24878	-670.58224	-376.90092	660.56995	-490.91743	-378.00506	653.98880	-631.99907	
1158	11.57000000	-114.76086	422.68419	-365.50893	-76.09745	352.02540	-363.86937	-275.48932	87.04303	-382.52016	-332.26951	57.20052	-430.26763	-175.65564	41.22864	-348.37981	-133.69078	58.41089	-399.10038	-108.35990	423.42089	-790.70426	-81.62018	326.49501	-785.44794	-273.22512	94.78418	-785.67731	-334.88978	55.50330	-739.08512	-183.42004	43.79361	-828.20498	-128.86386	57.45187	-779.04584	-136.93890	256.61447	-359.49938	-137.08536	391.50229	-338.56009	-204.73606	297.98715	-336.09903	-147.21571	377.29097	-819.32389	-207.48278	271.02612	-828.83221	-286.53719	604.90914	-352.14199	-192.48791	543.68506	-350.68207	-250.82718	451.28165	-378.29531	-350.39142	513.82194	-371.42236	-211.51350	475.97935	-350.10173	-301.15827	628.31856	-781.14487	-188.68419	549.05471	-785.57370	-371.73350	539.91704	-778.85753	-257.43932	459.25971	-769.83947	-284.45169	675.30638	-463.93635	-449.01564	797.64470	-531.87318	-288.44507	672.84363	-678.26535	-449.67042	793.79805	-612.44618	-95.98873	1068.38888	-569.22816	-40.33586	1019.42438	-442.86698	-45.07375	1023.76580	-697.96060	-13.46982	957.51944	-551.74503	-16.85450	957.61656	-583.37177	10.99836	954.33398	-374.47794	63.62729	752.69224	-309.10004	87.18725	801.43677	-265.42317	171.36203	836.58588	-291.33110	300.62443	844.90044	-344.48324	311.54067	817.88838	-319.26814	-5.08971	959.33131	-773.81523	80.88643	754.96466	-806.89220	94.91514	803.72471	-850.72971	196.29321	830.36369	-826.24550	309.40187	843.32942	-772.49617	320.84301	813.23829	-796.67567	-395.30372	636.30534	-463.60498	-398.32936	635.47089	-671.08873	-378.12344	653.76169	-491.24898	-379.27204	647.01457	-632.57421	
1159	11.58000000	-113.83743	421.79822	-364.74151	-74.97414	351.13282	-363.11486	-275.34281	86.98917	-382.69747	-332.20499	57.32855	-430.34369	-175.58909	41.27747	-348.27902	-133.60475	58.32288	-398.94479	-107.12593	422.29471	-791.69453	-80.37074	325.48090	-786.37292	-273.00560	94.71924	-785.54457	-334.76408	55.63351	-738.91228	-183.40910	43.76202	-828.17761	-128.79418	57.42076	-779.04228	-136.02734	255.80225	-359.10833	-135.66573	391.18826	-337.26111	-204.06280	297.45006	-335.80805	-145.93613	376.33122	-819.92554	-206.63912	269.78221	-828.42085	-288.73170	600.96674	-352.40411	-193.46687	541.61347	-350.38737	-250.43956	448.21621	-377.32599	-351.01374	508.90560	-371.02035	-211.48424	473.50698	-349.67068	-303.09289	623.89891	-781.30356	-189.53295	546.39786	-785.70745	-372.40850	534.58370	-779.48125	-256.86054	455.64721	-770.61029	-285.46707	668.13501	-464.19515	-449.56319	791.12438	-532.30902	-289.37075	665.80341	-678.81775	-450.20228	787.16369	-612.82501	-93.66284	1057.67638	-569.73456	-38.29056	1008.66814	-443.81169	-42.58388	1012.96708	-698.07367	-11.32002	947.02020	-552.33095	-15.34210	946.49510	-583.88698	13.22226	944.02533	-375.33204	67.06195	743.08451	-309.33336	90.29951	792.14455	-265.88708	174.20483	827.95560	-291.81216	303.37066	837.11513	-345.23061	314.58088	810.21837	-319.98834	-2.45407	948.75039	-773.75532	84.65643	745.09834	-806.97701	98.36814	793.77440	-850.49717	199.64532	820.97045	-825.76703	312.47532	834.51049	-771.78704	324.17902	804.47079	-795.72311	-396.43115	629.51352	-464.06170	-399.37810	628.77080	-671.54670	-379.25582	647.09013	-491.56097	-380.37972	640.12951	-633.06832	
1160	11.59000000	-112.97217	421.01158	-363.93380	-73.91040	350.50164	-362.07529	-275.25368	86.99322	-382.79672	-332.16648	57.43415	-430.41548	-175.54635	41.27148	-348.23040	-133.53216	58.19805	-398.77390	-106.03231	421.25744	-792.81411	-79.22480	324.50175	-787.35295	-272.81409	94.66279	-785.41843	-334.65875	55.78228	-738.74302	-183.39907	43.72793	-828.16706	-128.75851	57.37145	-779.06929	-135.27215	255.14392	-358.78328	-134.23347	391.03409	-336.28419	-202.85897	296.44975	-335.43846	-144.75304	375.52423	-820.74292	-205.90437	268.96462	-828.49367	-290.92414	596.89541	-353.05075	-194.75462	539.58362	-350.05754	-250.13262	445.25830	-376.64215	-351.70445	504.15864	-370.62628	-211.60710	471.14665	-349.15463	-305.10399	619.59772	-781.72293	-190.51239	543.79657	-786.10070	-373.11404	529.22946	-780.02052	-256.38753	452.05657	-771.24380	-286.47997	661.04068	-464.55195	-450.12883	784.68415	-532.63212	-290.24713	658.90133	-679.39861	-450.65420	780.68007	-613.23389	-91.09491	1047.42217	-570.38840	-36.26741	998.15548	-444.70687	-40.11203	1002.32795	-698.37985	-9.75869	936.06627	-553.16961	-13.92315	935.35545	-584.00555	15.36915	933.82726	-376.17987	70.22217	733.24425	-310.29204	93.32812	782.97893	-266.44573	177.01907	819.49494	-292.38138	306.03274	829.50182	-345.99526	317.58423	802.71965	-320.78912	0.12459	938.32937	-773.83069	88.32901	735.22632	-806.68992	101.77578	783.98055	-850.30154	202.85665	811.67050	-825.38589	315.52577	825.89117	-771.12783	327.44742	795.83955	-794.88302	-397.53988	622.77511	-464.58619	-400.39606	622.24057	-672.07262	-380.43402	640.41115	-492.09144	-381.35716	633.37342	-633.74185	
